<svg width="19" height="23" viewBox="0 0 19 23" fill="none" xmlns="http://www.w3.org/2000/svg">
<path d="M17.4156 10.0817C17.4156 16.5343 10.8066 20.5096 9.43315 21.2668C9.35707 21.3087 9.27159 21.3308 9.1847 21.3308C9.0978 21.3308 9.01233 21.3087 8.93624 21.2668C7.56177 20.5096 0.954834 16.5343 0.954834 10.0817C0.954834 4.9377 4.04123 1.33691 9.18521 1.33691C14.3292 1.33691 17.4156 4.9377 17.4156 10.0817Z" stroke="#1678F2" stroke-width="1.67948" stroke-linecap="round" stroke-linejoin="round"/>
<path d="M5.06995 9.56782C5.06995 10.6592 5.50351 11.706 6.27526 12.4777C7.047 13.2494 8.09372 13.683 9.18513 13.683C10.2766 13.683 11.3233 13.2494 12.095 12.4777C12.8668 11.706 13.3003 10.6592 13.3003 9.56782C13.3003 8.47641 12.8668 7.42969 12.095 6.65795C11.3233 5.8862 10.2766 5.45264 9.18513 5.45264C8.09372 5.45264 7.047 5.8862 6.27526 6.65795C5.50351 7.42969 5.06995 8.47641 5.06995 9.56782V9.56782Z" stroke="#1678F2" stroke-width="1.67948" stroke-linecap="round" stroke-linejoin="round"/>
</svg>
