<svg width="275" height="87" viewBox="0 0 275 87" fill="none" xmlns="http://www.w3.org/2000/svg">
<g filter="url(#filter0_di_1_1080)">
<circle cx="232.793" cy="37.2074" r="16.2074" fill="url(#paint0_linear_1_1080)"/>
</g>
<rect x="229.269" y="28.0466" width="7.04668" height="18.3214" rx="1.057" fill="white"/>
<rect x="241.953" y="33.6838" width="7.04668" height="18.3214" rx="1.057" transform="rotate(90 241.953 33.6838)" fill="white"/>
<path d="M10.3295 74.2844V61.405H22.6903V74.2844H29.6919V42.3019H22.6903V54.922H10.3295V42.3019H3.32791V74.2844H10.3295ZM45.5393 74.8463C51.4604 74.8463 55.7391 71.7777 56.5171 66.9803H50.4231C49.9477 68.5362 48.1757 69.4438 45.669 69.4438C42.73 69.4438 41.1309 68.104 40.7419 65.2515L56.4307 65.1651V63.4795C56.4307 56.4347 52.1951 51.9831 45.4096 51.9831C38.8835 51.9831 34.3454 56.694 34.3454 63.4363C34.3454 70.0921 39.0131 74.8463 45.5393 74.8463ZM45.4529 57.3855C48.1325 57.3855 49.8181 58.855 49.8181 61.1457H40.8284C41.347 58.5525 42.8165 57.3855 45.4529 57.3855ZM66.6872 74.8463C69.9287 74.8463 72.7812 73.42 73.4727 71.4319L73.9049 74.2844H79.7828V61.6643C79.7828 55.4839 76.2388 51.9831 69.9719 51.9831C63.7915 51.9831 59.7721 55.1813 59.7721 60.0652H65.3042C65.3042 58.1203 66.8169 57.0398 69.6262 57.0398C72.0032 57.0398 73.2998 58.1635 73.2998 60.2813V60.627L67.2491 61.1024C62.0627 61.4914 59.2534 63.9549 59.2534 67.9311C59.2534 72.1667 62.1059 74.8463 66.6872 74.8463ZM69.0211 69.9192C66.9898 69.9192 66.0389 69.1845 66.0389 67.6286C66.0389 66.2456 67.0762 65.5973 69.9719 65.338L73.343 65.0354V66.2024C73.343 68.6659 71.571 69.9192 69.0211 69.9192ZM91.2123 74.2844V41.6968H84.5565V74.2844H91.2123ZM104.936 74.2844V58.2067H109.042V52.6746H104.936V45.9756H98.2801V52.6746H94.1742V58.2067H98.2801V74.2844H104.936ZM118.689 74.2844V62.4422C118.689 59.7626 120.374 58.0338 123.011 58.0338C125.301 58.0338 126.814 59.8058 126.814 62.5287V74.2844H133.47V60.9296C133.47 55.2678 130.488 51.9831 125.345 51.9831C122.535 51.9831 120.072 53.0636 118.732 54.922V41.6968H112.033V74.2844H118.689ZM136.093 84.6571C137.389 85.0461 138.902 85.2622 140.501 85.2622C144.304 85.2622 146.725 83.4038 148.54 78.9954L159.518 52.6746H152.602L147.373 66.5481L142.662 52.6746H135.531L144.218 75.0192L143.829 76.0564C142.964 78.3903 142.014 79.0818 139.766 79.0818H136.093V84.6571ZM169.866 74.2844V65.338C169.866 61.8372 169.822 59.1576 169.433 56.7805L176.176 74.2844H182.572L189.358 56.7805C189.012 59.1576 189.012 60.6702 189.012 67.5854V74.2844H195.797V42.3019H188.925L179.374 66.1591L169.866 42.3019H163.08V74.2844H169.866ZM211.665 74.8463C217.586 74.8463 221.865 71.7777 222.643 66.9803H216.549C216.073 68.5362 214.301 69.4438 211.794 69.4438C208.855 69.4438 207.256 68.104 206.867 65.2515L222.556 65.1651V63.4795C222.556 56.4347 218.321 51.9831 211.535 51.9831C205.009 51.9831 200.471 56.694 200.471 63.4363C200.471 70.0921 205.139 74.8463 211.665 74.8463ZM211.578 57.3855C214.258 57.3855 215.944 58.855 215.944 61.1457H206.954C207.472 58.5525 208.942 57.3855 211.578 57.3855Z" fill="url(#paint1_linear_1_1080)"/>
<defs>
<filter id="filter0_di_1_1080" x="190.924" y="0.740797" width="83.738" height="83.7381" filterUnits="userSpaceOnUse" color-interpolation-filters="sRGB">
<feFlood flood-opacity="0" result="BackgroundImageFix"/>
<feColorMatrix in="SourceAlpha" type="matrix" values="0 0 0 0 0 0 0 0 0 0 0 0 0 0 0 0 0 0 127 0" result="hardAlpha"/>
<feOffset dy="5.40245"/>
<feGaussianBlur stdDeviation="12.8308"/>
<feComposite in2="hardAlpha" operator="out"/>
<feColorMatrix type="matrix" values="0 0 0 0 0.0862745 0 0 0 0 0.470588 0 0 0 0 0.94902 0 0 0 0.2 0"/>
<feBlend mode="normal" in2="BackgroundImageFix" result="effect1_dropShadow_1_1080"/>
<feBlend mode="normal" in="SourceGraphic" in2="effect1_dropShadow_1_1080" result="shape"/>
<feColorMatrix in="SourceAlpha" type="matrix" values="0 0 0 0 0 0 0 0 0 0 0 0 0 0 0 0 0 0 127 0" result="hardAlpha"/>
<feOffset dy="5.40245"/>
<feGaussianBlur stdDeviation="2.70123"/>
<feComposite in2="hardAlpha" operator="arithmetic" k2="-1" k3="1"/>
<feColorMatrix type="matrix" values="0 0 0 0 0 0 0 0 0 0 0 0 0 0 0 0 0 0 0.12 0"/>
<feBlend mode="normal" in2="shape" result="effect2_innerShadow_1_1080"/>
</filter>
<linearGradient id="paint0_linear_1_1080" x1="214.062" y1="8.28834" x2="287.733" y2="16.2146" gradientUnits="userSpaceOnUse">
<stop stop-color="#3A8EF6"/>
<stop offset="1" stop-color="#6F3AFA"/>
</linearGradient>
<linearGradient id="paint1_linear_1_1080" x1="-17.4371" y1="5.53932" x2="421.733" y2="188.021" gradientUnits="userSpaceOnUse">
<stop stop-color="#3A8EF6"/>
<stop offset="1" stop-color="#6F3AFA"/>
</linearGradient>
</defs>
</svg>
