<svg width="78" height="78" viewBox="0 0 78 78" fill="none" xmlns="http://www.w3.org/2000/svg">
<circle cx="39" cy="39" r="39" fill="url(#paint0_linear_1_936)"/>
<path d="M37.5 58.1875C37.5 58.7398 37.9477 59.1875 38.5 59.1875C39.0523 59.1875 39.5 58.7398 39.5 58.1875H37.5ZM28.25 37.0938C28.25 36.5415 27.8023 36.0938 27.25 36.0938C26.6977 36.0938 26.25 36.5415 26.25 37.0938H28.25ZM50.75 37.0938C50.75 36.5415 50.3023 36.0938 49.75 36.0938C49.1977 36.0938 48.75 36.5415 48.75 37.0938H50.75ZM31.4688 57.1875C30.9165 57.1875 30.4688 57.6352 30.4688 58.1875C30.4688 58.7398 30.9165 59.1875 31.4688 59.1875V57.1875ZM45.5312 59.1875C46.0835 59.1875 46.5312 58.7398 46.5312 58.1875C46.5312 57.6352 46.0835 57.1875 45.5312 57.1875V59.1875ZM43.125 24.4375V39.9063H45.125V24.4375H43.125ZM33.875 39.9062V24.4375H31.875V39.9062H33.875ZM38.5 44.5312C35.9457 44.5312 33.875 42.4606 33.875 39.9062H31.875C31.875 43.5651 34.8411 46.5312 38.5 46.5312V44.5312ZM43.125 39.9063C43.125 42.4606 41.0543 44.5312 38.5 44.5312V46.5312C42.1589 46.5312 45.125 43.5651 45.125 39.9063H43.125ZM38.5 19.8125C41.0543 19.8125 43.125 21.8832 43.125 24.4375H45.125C45.125 20.7786 42.1589 17.8125 38.5 17.8125V19.8125ZM38.5 17.8125C34.8411 17.8125 31.875 20.7786 31.875 24.4375H33.875C33.875 21.8832 35.9457 19.8125 38.5 19.8125V17.8125ZM48.75 39.9062C48.75 45.5672 44.1609 50.1562 38.5 50.1562V52.1562C45.2655 52.1562 50.75 46.6717 50.75 39.9062H48.75ZM38.5 50.1562C32.8391 50.1562 28.25 45.5672 28.25 39.9062H26.25C26.25 46.6717 31.7345 52.1562 38.5 52.1562V50.1562ZM37.5 51.1562V58.1875H39.5V51.1562H37.5ZM28.25 39.9062V37.0938H26.25V39.9062H28.25ZM50.75 39.9062V37.0938H48.75V39.9062H50.75ZM31.4688 59.1875H45.5312V57.1875H31.4688V59.1875Z" fill="white"/>
<defs>
<linearGradient id="paint0_linear_1_936" x1="-6.07186" y1="-30.5882" x2="171.205" y2="-11.5153" gradientUnits="userSpaceOnUse">
<stop stop-color="#3A8EF6"/>
<stop offset="1" stop-color="#6F3AFA"/>
</linearGradient>
</defs>
</svg>
