<svg width="78" height="78" viewBox="0 0 78 78" fill="none" xmlns="http://www.w3.org/2000/svg">
<circle cx="39" cy="39" r="39" fill="url(#paint0_linear_1_933)"/>
<path d="M42.7188 31.4688V30.4688C42.1665 30.4688 41.7188 30.9165 41.7188 31.4688H42.7188ZM42.7328 31.4688H43.7328C43.7328 30.9165 43.2851 30.4688 42.7328 30.4688V31.4688ZM42.7328 31.4828V32.4828C43.2851 32.4828 43.7328 32.0351 43.7328 31.4828H42.7328ZM42.7188 31.4828H41.7188C41.7188 32.0351 42.1665 32.4828 42.7188 32.4828V31.4828ZM19.5116 44.8241C19.1211 45.2147 19.1211 45.8478 19.5116 46.2384C19.9022 46.6289 20.5353 46.6289 20.9259 46.2384L19.5116 44.8241ZM29.8919 35.8581L30.599 36.5652L29.8919 35.8581ZM35.8581 35.8581L35.151 36.5652L35.8581 35.8581ZM44.8241 46.2384C45.2147 46.6289 45.8478 46.6289 46.2384 46.2384C46.6289 45.8478 46.6289 45.2147 46.2384 44.8241L44.8241 46.2384ZM42.0116 42.0116C41.6211 42.4022 41.6211 43.0353 42.0116 43.4259C42.4022 43.8164 43.0353 43.8164 43.4259 43.4259L42.0116 42.0116ZM45.3606 40.0769L44.6535 39.3697L45.3606 40.0769ZM51.3269 40.0769L52.034 39.3698L51.3269 40.0769ZM56.0741 46.2384C56.4647 46.6289 57.0978 46.6289 57.4884 46.2384C57.8789 45.8478 57.8789 45.2147 57.4884 44.8241L56.0741 46.2384ZM23.0312 25.4375H53.9688V23.4375H23.0312V25.4375ZM55.7812 27.25V49.75H57.7812V27.25H55.7812ZM53.9688 51.5625H23.0312V53.5625H53.9688V51.5625ZM21.2188 49.75V27.25H19.2188V49.75H21.2188ZM23.0312 51.5625C22.0302 51.5625 21.2188 50.751 21.2188 49.75H19.2188C19.2188 51.8556 20.9257 53.5625 23.0312 53.5625V51.5625ZM55.7812 49.75C55.7812 50.751 54.9698 51.5625 53.9688 51.5625V53.5625C56.0743 53.5625 57.7812 51.8556 57.7812 49.75H55.7812ZM53.9688 25.4375C54.9698 25.4375 55.7812 26.249 55.7812 27.25H57.7812C57.7812 25.1444 56.0743 23.4375 53.9688 23.4375V25.4375ZM23.0312 23.4375C20.9257 23.4375 19.2188 25.1444 19.2188 27.25H21.2188C21.2188 26.249 22.0302 25.4375 23.0312 25.4375V23.4375ZM42.7188 32.4688H42.7328V30.4688H42.7188V32.4688ZM41.7328 31.4688V31.4828H43.7328V31.4688H41.7328ZM42.7328 30.4828H42.7188V32.4828H42.7328V30.4828ZM43.7188 31.4828V31.4688H41.7188V31.4828H43.7188ZM20.9259 46.2384L30.599 36.5652L29.1848 35.151L19.5116 44.8241L20.9259 46.2384ZM35.151 36.5652L44.8241 46.2384L46.2384 44.8241L36.5652 35.151L35.151 36.5652ZM30.599 36.5652C31.856 35.3082 33.894 35.3082 35.151 36.5652L36.5652 35.151C34.5272 33.113 31.2228 33.1129 29.1848 35.151L30.599 36.5652ZM43.4259 43.4259L46.0678 40.784L44.6535 39.3697L42.0116 42.0116L43.4259 43.4259ZM50.6198 40.784L56.0741 46.2384L57.4884 44.8241L52.034 39.3698L50.6198 40.784ZM46.0678 40.784C47.3248 39.527 49.3627 39.527 50.6198 40.784L52.034 39.3698C49.9959 37.3317 46.6916 37.3317 44.6535 39.3697L46.0678 40.784ZM42.4219 31.4688C42.4219 31.3048 42.5548 31.1719 42.7188 31.1719V33.1719C43.6594 33.1719 44.4219 32.4094 44.4219 31.4688H42.4219ZM42.7188 31.1719C42.8827 31.1719 43.0156 31.3048 43.0156 31.4688H41.0156C41.0156 32.4094 41.7781 33.1719 42.7188 33.1719V31.1719ZM43.0156 31.4688C43.0156 31.6327 42.8827 31.7656 42.7188 31.7656V29.7656C41.7781 29.7656 41.0156 30.5281 41.0156 31.4688H43.0156ZM42.7188 31.7656C42.5548 31.7656 42.4219 31.6327 42.4219 31.4688H44.4219C44.4219 30.5281 43.6594 29.7656 42.7188 29.7656V31.7656Z" fill="white"/>
<defs>
<linearGradient id="paint0_linear_1_933" x1="-6.07186" y1="-30.5882" x2="171.205" y2="-11.5153" gradientUnits="userSpaceOnUse">
<stop stop-color="#3A8EF6"/>
<stop offset="1" stop-color="#6F3AFA"/>
</linearGradient>
</defs>
</svg>
