<svg width="58" height="53" viewBox="0 0 58 53" fill="none" xmlns="http://www.w3.org/2000/svg">
<g clip-path="url(#clip0_103_13)">
<path d="M29.2625 52.4416C29.0083 52.4416 28.7542 52.4416 28.5 52.4416C27.9917 52.4416 27.7375 52.1874 27.2292 51.6791L10.9625 34.9041C9.94584 33.8874 9.94584 32.3624 10.9625 31.3458C11.9792 30.3291 13.5042 30.3291 14.5208 31.3458L29.0083 46.3416L48.5792 26.2624C50.1042 24.7374 51.1208 22.9583 51.6292 21.1791C53.1542 16.3499 51.8833 11.5208 48.5792 7.96242C47.0542 6.18325 44.7667 5.16659 42.225 5.16659C38.6667 5.16659 34.6 7.19992 31.0417 10.7583C30.5333 11.2666 30.025 11.5208 29.2625 11.5208C28.5 11.5208 27.9917 11.2666 27.4833 10.7583C23.925 7.19992 19.8583 5.16659 16.0458 5.16659C13.5042 5.16659 11.4708 6.18325 9.4375 7.96242C6.3875 11.0124 5.11667 15.5874 6.13334 20.1624C6.64167 21.6874 5.625 22.9583 4.35417 23.2124C3.08334 23.4666 1.55834 22.7041 1.30417 21.4333C-0.220829 15.3333 1.55834 8.97909 6.13334 4.40409C8.92917 1.60825 12.2333 0.083252 16.0458 0.083252C20.3667 0.083252 24.9417 2.11659 29.0083 5.67492C33.3292 2.11659 37.9042 0.083252 42.225 0.083252C46.0375 0.083252 49.5958 1.60825 52.3917 4.40409C57.2208 9.23325 58.7458 16.0958 56.7125 22.7041C55.95 25.2458 54.425 27.7874 52.3917 29.8208L31.0417 51.6791C30.5333 52.1874 30.025 52.4416 29.2625 52.4416Z" fill="#1678F2"/>
<path d="M28.7542 37.1917C27.4833 37.1917 26.7208 36.4291 26.2125 35.4125L23.1625 25.5L22.4 28.0417C22.1458 29.0583 21.1292 29.8208 19.8583 29.8208H3.08332C1.55832 29.8208 0.541656 28.8042 0.541656 27.2792C0.541656 25.7542 1.55832 24.7375 3.08332 24.7375H18.0792L20.3667 16.0958C20.875 15.0792 21.8917 14.3167 22.9083 14.3167C23.925 14.3167 24.9417 15.0792 25.45 16.0958L29.0083 27.2792L32.3125 18.8917C32.8208 17.875 33.5833 17.3667 34.6 17.3667C35.6167 17.3667 36.6333 18.1292 36.8875 18.8917L39.175 24.7375H42.7333C44.2583 24.7375 45.275 25.7542 45.275 27.2792C45.275 28.8042 44.2583 29.8208 42.7333 29.8208H37.3958C36.3792 29.8208 35.3625 29.0583 35.1083 28.2958L34.6 26.7708L31.0417 35.6667C30.7875 36.6833 29.7708 37.1917 28.7542 37.1917Z" fill="#1678F2"/>
</g>
<defs>
<clipPath id="clip0_103_13">
<rect width="57.1875" height="52.3583" fill="white" transform="translate(0.541656 0.083252)"/>
</clipPath>
</defs>
</svg>
